<svg width="1653" height="965" viewBox="0 0 1653 965" fill="none" xmlns="http://www.w3.org/2000/svg">
<path d="M590.52 898.02L702.52 905.52L1141.02 946.52L1349.52 963.52L1496.02 958.52L1585.52 937.02L1632.02 896.52L1651.52 854.02L1644.52 819.02L1618.02 790.52L1590.52 785.52L953.52 722.52L897.52 716.02L861.02 703.02L836.02 676.02L806.52 659.52L769.02 654.02L745.52 663.52L731.02 654.02L433.02 307.02L401.02 261.02L360.52 194.52L301.02 76.5201L276.02 42.5201L259.52 15.0201L236.02 0.520142L132.52 15.0201L88.52 24.5201L36.52 42.5201L8.02002 57.5201L0.52002 76.5201L8.02002 112.52L36.52 194.52L62.52 261.02L76.52 323.52L111.02 339.02V443.52L122.02 550.52L132.52 638.52L148.02 713.52L190.52 789.52L245.52 839.02L309.52 870.52L412.02 885.02H476.02L524.02 870.52L548.02 861.02H570.02L579.52 870.52V885.02L590.52 898.02Z" stroke="black"/>
</svg>
